<svg xmlns="http://www.w3.org/2000/svg" viewBox="0 0 96 96" role="img" aria-label="Playlog">
  <defs>
    <linearGradient id="bg" x1="8" y1="8" x2="88" y2="88" gradientUnits="userSpaceOnUse">
      <stop stop-color="#182027"/><stop offset="1" stop-color="#0F1115"/>
    </linearGradient>
    <linearGradient id="mark" x1="24" y1="20" x2="70" y2="78" gradientUnits="userSpaceOnUse">
      <stop stop-color="#A3E635"/><stop offset=".55" stop-color="#22C55E"/><stop offset="1" stop-color="#06B6D4"/>
    </linearGradient>
  </defs>
  <rect x="3" y="3" width="90" height="90" rx="22" fill="url(#bg)" stroke="#2A323B" stroke-width="2"/>
  <path fill="url(#mark)" fill-rule="evenodd" d="M20 13h35c19 0 31 12.5 31 31S74 75 55 75h-3v18L36 82 20 94V13Zm20 15v49l12-9v-8h4c10.5 0 17-6.5 17-16s-6.5-16-17-16H40Z"/>
  <circle cx="57" cy="36" r="3" fill="#22C55E"/><circle cx="50" cy="44" r="3" fill="#22C55E"/>
  <circle cx="64" cy="44" r="3" fill="#22C55E"/><circle cx="57" cy="52" r="3" fill="#22C55E"/>
</svg>
